<?xml version="1.0" encoding="utf-8"?>
<!-- Generator: Adobe Illustrator 23.0.4, SVG Export Plug-In . SVG Version: 6.00 Build 0)  -->
<svg version="1.1" id="圖層_1" xmlns="http://www.w3.org/2000/svg" xmlns:xlink="http://www.w3.org/1999/xlink" x="0px" y="0px"
	 viewBox="0 0 750 1334" style="enable-background:new 0 0 750 1334;" xml:space="preserve">
<style type="text/css">
	.st0{fill:#C4ECF7;}
	.st1{fill:#738E6C;stroke:#47280A;stroke-width:4;stroke-miterlimit:10;}
	.st2{fill:#666666;stroke:#47280A;stroke-width:3;stroke-linecap:round;stroke-linejoin:round;stroke-miterlimit:10;}
	.st3{fill:#FF3F44;stroke:#47280A;stroke-width:3;stroke-linecap:round;stroke-linejoin:round;stroke-miterlimit:10;}
	.st4{fill:none;stroke:#47280A;stroke-width:3;stroke-linecap:round;stroke-linejoin:round;stroke-miterlimit:10;}
	.st5{fill:#F9F9F9;stroke:#47280A;stroke-width:3;stroke-linecap:round;stroke-linejoin:round;stroke-miterlimit:10;}
	.st6{fill:#8C8C8C;stroke:#47280A;stroke-width:3;stroke-linecap:round;stroke-linejoin:round;stroke-miterlimit:10;}
	.st7{fill:#D3D3D3;stroke:#47280A;stroke-width:3;stroke-linecap:round;stroke-linejoin:round;stroke-miterlimit:10;}
	.st8{fill:#E5E5E5;stroke:#47280A;stroke-width:3;stroke-linecap:round;stroke-linejoin:round;stroke-miterlimit:10;}
	.st9{fill:#CEB2B5;stroke:#47280A;stroke-width:2;stroke-linecap:round;stroke-linejoin:round;stroke-miterlimit:10;}
	.st10{fill:#47823F;stroke:#47280A;stroke-width:4;stroke-linecap:round;stroke-linejoin:round;stroke-miterlimit:10;}
	.st11{fill:#C6D89E;stroke:#47280A;stroke-width:4;stroke-miterlimit:10;}
	.st12{fill:#E5D698;stroke:#47280A;stroke-width:4;stroke-linecap:round;stroke-linejoin:round;stroke-miterlimit:10;}
	.st13{fill:#ADCE74;stroke:#47280A;stroke-width:4;stroke-miterlimit:10;}
	.st14{fill:#D8CA8F;stroke:#47280A;stroke-width:4;stroke-linecap:round;stroke-linejoin:round;stroke-miterlimit:10;}
	.st15{fill:#96BC5E;stroke:#603813;stroke-width:5;stroke-linecap:round;stroke-linejoin:round;stroke-miterlimit:10;}
	.st16{fill:#FFFFFF;}
	.st17{fill:#BF9A60;stroke:#47280A;stroke-width:4;stroke-miterlimit:10;}
	.st18{fill:#96BC5E;stroke:#47280A;stroke-width:4;stroke-linecap:round;stroke-linejoin:round;stroke-miterlimit:10;}
</style>
<g id="圖層_8">
	<path class="st0" d="M748.3,256.4V2.5H-2.5v599.9h751V258C748.4,257.5,748.3,257,748.3,256.4z"/>
</g>
<g>
	<path class="st1" d="M592.7,530.1c-4.1-0.7-46.7-15.2-55.8-16c-9.2-0.8-153.9,3.1-163.3-1.6c-9.3-4.7-13.8-9.5-18.7-10.1
		c-10.2-1.2-16.7,5.9-24.4,5.8c-7.6-0.1-21.7-11.5-32.5-12.8s-29.4,6.9-38.5,6s-53-20.2-67.5-21.4s-65.7,4.7-72.3,4.5
		s-32.5-10.2-39.6-10.8c-7.1-0.7-33.5,8.8-40.7,8c-4.7-0.5-26.3-6.1-42.4-10.1v34.6l597.9,42.4C594.8,548.6,596.7,530.8,592.7,530.1
		z"/>
	<g>
		<path class="st2" d="M85.3,409.6c0,0,48.7-10.5,58.6-11.6s27,1.6,37.8,34.3c-13.6,0.6-103.1,14.5-103.1,14.5L85.3,409.6z"/>
		<path class="st3" d="M184.4,491.7c0,0-2.9-33.5-4.3-52.5c-5.2-16.9-18.1-39.2-33.5-37s-41.3,7-58.8,9.8
			c-17.6,2.8-28.6,34.7-28.6,34.7l-4.6,45H184.4z"/>
		<line class="st4" x1="116.6" y1="445.9" x2="114.3" y2="491.7"/>
		<path class="st4" d="M149,402c-28.4-1.2-32.4,34.2-32.4,34.2"/>
		<polygon class="st5" points="139.7,412.7 139.7,419.6 159.4,420.2 158.3,413.4 		"/>
		<polygon class="st5" points="143.7,419.7 143,432.3 155,432.3 155,420.1 		"/>
		<polygon class="st5" points="130.1,455.4 126.2,459.6 149,494.6 152.3,491.7 		"/>
		<polygon class="st5" points="169.6,456.8 173,461.4 150.9,498 146.1,497 		"/>
		<polygon class="st5" points="123.1,493.1 124.7,453.6 129.4,453.6 128.2,493.1 		"/>
		<polygon class="st5" points="147.6,494.7 149.2,455.3 153.9,455.3 152.7,494.7 		"/>
		<polygon class="st5" points="170.9,493.8 170,454.8 174.6,454.8 176.1,493.8 		"/>
		<polygon class="st5" points="124.1,452.4 124.1,457.1 175.5,459.6 175.3,454.8 		"/>
		<polygon class="st5" points="114.6,436.2 182.6,439.7 182.6,448.5 117.2,445.8 56.3,456.4 57.9,447.1 		"/>
		<polygon class="st5" points="66,465.5 65.5,474.1 71.3,473.8 72.7,464.6 		"/>
		<polygon class="st5" points="92.8,460.4 92.3,471.7 99.2,471.2 100.2,459.1 		"/>
		<polygon class="st5" points="64.5,462.1 63.6,466.1 75.3,464.4 76.2,459.6 		"/>
		<polygon class="st5" points="90,457.1 90,461.7 103.1,459.8 104,454.5 		"/>
		<path class="st6" d="M143.9,398c0,0-42.5,6.3-61.3,12.4c-18.9,6.1-26.5,33.5-26.5,33.5l57.2-10.5C113.3,433.4,119,398.8,143.9,398
			z"/>
	</g>
	<g>
		<polygon class="st5" points="209.9,426.9 199.3,503.9 206.9,507.4 218,424.9 		"/>
		<polygon class="st5" points="237.4,421.5 230.5,422.2 248.9,506.4 258.2,507.8 		"/>
		<polygon class="st7" points="221.5,422.3 224.3,500.4 231.8,502.6 226.5,421.7 		"/>
		<path class="st5" d="M205.4,397c-9.4,3.4-9.5,32.1,3.3,30.7s26.8-3.9,36.9-5.2c10.1-1.3,4.9-33.2-5.9-32.1
			C228.8,391.7,205.4,397,205.4,397z"/>
		<path class="st5" d="M235.6,398.2c0,0-4.8,10.5,2.1,19.7"/>
		<polygon class="st8" points="212.7,437 212.3,441.3 239.4,444.7 238.5,436.9 		"/>
		<polygon class="st8" points="211.4,451.8 209.5,456.8 241.9,463 240.5,455 		"/>
		<polygon class="st8" points="208.6,468.8 208.1,473.9 245.1,478.3 244.4,471.7 		"/>
		<polygon class="st8" points="207,484.7 206.7,488.4 249.8,495 248.1,487.8 		"/>
	</g>
	<g>
		<polygon class="st9" points="254.1,389.1 249.8,401.3 252,404.3 257,391.5 		"/>
		<polygon class="st9" points="251.4,408 249.9,413.2 255.4,422.8 257.3,416.9 		"/>
		<path class="st9" d="M243.1,399.7c-3,0.7-2.9,14.1,1.5,14.4c4.4,0.4,12.7-2.4,11.5-9.2C254.9,398,247.7,398.6,243.1,399.7z"/>
		<path class="st9" d="M240.9,394.6c0,0,4.8,8.7,5.5,8.8s1.9-0.5,2.3-1.9s-5.1-11.6-5.1-11.6L240.9,394.6z"/>
		<polygon class="st9" points="238.9,397.8 245.7,387.5 228.7,353 215.8,368.4 		"/>
		<polygon class="st9" points="256.8,411.9 252.7,421.5 266.2,445.5 270.9,429.9 		"/>
		<polygon class="st9" points="252.4,388.9 256.7,398 268.3,371.8 262.5,360 		"/>
		<path class="st9" d="M240.8,420.9c0,0,3.8-8.9,4.6-9.3s2.3,2.9,2.3,2.9l-3.9,10.8L240.8,420.9z"/>
		<polygon class="st9" points="239.3,414.9 247.1,425.9 235.8,461.6 226.9,446.2 		"/>
	</g>
	<path class="st10" d="M573.1,460.1c0.1-1.7-1.5-2.9-3-3.4s-3.2-0.6-4.4-1.7c-0.6-0.6-1.1-1.4-1.8-1.6c-0.8-0.2-1.6,0.3-2.4,0.4
		c-1.1,0.1-2.1-0.6-3.2-0.9s-2.6,0.2-2.5,1.4c-2.2-2-5-3.3-7.8-3.6c-0.9-0.1-1.8-0.1-2.5,0.4c-0.6,0.4-1,1.1-1.6,1.4
		c-1.1,0.5-2.3-0.1-3.5,0c-1.8,0.2-3,2-4.5,3.1c-3.8,2.8-9.1,0.8-13.6,1.8c-4.3,1-8.2,4.7-12.5,4c-1.6-0.3-3.5-1.2-4.9-0.2
		c-0.9,0.6-1.2,1.8-2,2.5c-1.4,1.1-3.3,0.4-5,0s-4.1,0.4-3.9,2.2c-4.2,0.4-8.4,0.5-12.6,0.3c-0.6,0-1.2,0-1.6,0.4
		c-0.6,0.8,0.1,2-0.3,3c-0.3,0.9-1.5,1.1-2.4,1.4c-2.6,0.9-4.1,3.8-5.7,6.2c-1.9,2.7-4.2,5.1-6.9,6.8c-0.5,0.3-1,0.6-1.4,1.1
		c-1.2,1.8,0.7,4,2.3,5.2c-3,1.4-3.2,6.7-0.3,8.4c-2.6,2.5-2.7,7.2-0.7,10.2c2,3.1,5.6,4.6,9.2,4.6c-1,1.2-1.5,2.8-1.4,4.4
		c0.5,1,2,0.3,2.8-0.3c0.9-0.7,2.6-0.9,2.7,0.2c0.7-2.2,3.4-2.7,5.6-2.2c2.1,0.5,4.3,1.5,6.4,0.9c-0.6,1.2,1,2.5,2.2,2.2
		c1.3-0.2,2.3-1.2,3.5-1.7c3.8-1.5,7.6,2.9,11.7,2.8c1.4,0,2.7-0.6,4.1-0.5c2.1,0.1,3.9,1.6,5.9,2c2.9,0.5,5.7-1.2,8.4-2.4
		c5.4-2.3,11.3-2.4,17.1-2.4c2.1,0,4.4,0,6.1,1.2c0.7-1.6,2.6-2.3,4.3-2s3.1,1.4,4.5,2.4c-0.2-1.5,1.1-2.9,2.5-3.4s2.9-0.2,4.4-0.1
		c6.5,0.7,13-0.3,19.5-1.2c5.8-0.8,12-1.9,16.1-6.2c1-1.1,1.9-2.3,3.1-3.1c1-0.6,2.1-1,3-1.8c1.9-1.8,1.2-5.1,0.4-7.6"/>
	<path class="st10" d="M750.5,514c0-0.1,0-0.2-0.1-0.3c0,0,0,0,0.1,0v-56.8c-1.7-1.6-3.4-3.1-4.3-5.4c-1.1-2.7-0.8-5.8-1.3-8.7
		c-0.9-4.4-3.1-3.8-5.8-5.5c-2.3-1.5-3.4-4.4-6.1-5.5c-2.9-1.2-6.4-0.2-8.5,2.4c0.2-2.2-1.2-4.4-3.1-4.9c-1.9-0.4-3.9,1-4.5,3.1
		c-0.7-4.4-4.9-7.5-8.7-6.4c-1.1,0.4-2.2,1-3.4,1.2c-1.3,0.2-2.6-0.4-3.9-0.9c-3.7-1.6-7.4-3.3-11.2-4.9c-1-0.4-2.4-0.5-3.3-0.1
		c0.1-0.9-0.2-1.9-0.8-2.5c-1-1.1-2.6-1.3-4-1.4c-6.4-0.7-12.9-1.3-19.3-2c-2.3-0.2-5.2-0.1-6.1,2.4c-1.2-1.4-3.6-1-4.4,0.7
		c-4.1-5.1-12.4-4.2-15.5,1.8c-4.2-2.5-9.5-2.5-13.8,0c-3.8,2.6-8.5,3.4-12.7,2c-2.6-0.8-5.1-2.4-7.7-2.8c-2.7-0.4-5.9,0.9-6.7,3.9
		c-3.2-3.9-9.8-1.9-11,3.2c-1.1-0.3-2.1-0.5-3.2-0.8c-0.5,1.2-1,2.5-1.5,3.7c-4.1-1.2-8.7-0.6-12.4,1.8c-1.1-1.2-2.4-2.4-3.9-2.5
		c-1.5-0.2-3.2,1.4-2.8,3.1c-0.8-1.6-2.4-2.6-4-2.5c1,2.4-1.6,4.4-3.6,5.7c-2,1.2-3.9,4.7-1.9,6c-4.9,2-10.8,6.2-9.4,11.9
		c-4.5-1.7-9.5,0.8-12.6,4.8s-4.8,9.2-6.3,14.3c-1.9-0.3-3.7,1.5-4.4,3.6s-0.5,4.4-0.3,6.6c-3,0.2-6.1,0.4-9.1,0.6
		c1.9,0.9,3.2,3.2,3.2,5.5c0,1-0.3,2.1-0.3,3.1c0,2.4,1.2,4.5,2.3,6.4c2.4,4.1,5,8.3,8.7,10.7c3.7,2.4,9,2.6,11.8-1.1
		c5.9,3.4,13,2.3,19.4,4.2c5.8,1.7,11.2,6.1,17.3,6c5.4-0.1,10.2-3.7,15.5-4.8c2.5-0.5,5.1-0.5,7.6-0.5c4.9,0.1,9.8,0.1,14.5,1.4
		c8.2,2.2,17.5,7.6,24.4,2c2.2,3,5.6,4.8,9,4.7c0.5-0.9,1-1.7,1.5-2.6c-0.1,4.4,5,5.8,8.8,5.8s7.6,0,11.4,0.1c3.4,0,8.2-1.8,7.4-5.6
		c0.8,5.1,6.2,7.2,10.7,6.9c4.5-0.4,9.1-2.2,13.4-0.8c-0.6-1.4,0.8-3.1,2.2-3.2c1.4-0.1,2.6,0.7,3.9,1.4c3.5,1.8,7.4,2.1,11.1,2.4
		c6.5,0.5,13,1,19.5,1.6c4.2,0.3,8.5,0.6,12.3-1.3c2.7-1.4,4.9-4.2,5.6-7.4V514H750.5z"/>
	<path class="st11" d="M535.8,559.9c-0.2-2.4-0.5-4.9-2.1-6.7c-2.3-2.7-6.4-2.9-10-2.8c-87.2,1.3-172.5-22.3-257.8-40.5
		s-174.7-31-259-8.6c-3.3,0.9-6.6,1.9-10,2.9v112.9c10.5,0.3,21,0.2,31.5,0.1c131-1.3,262.2-10,392.7,1.3c40.2,3.5,81.3,8.8,120.5-1
		C539.7,598.3,537.7,579.1,535.8,559.9z"/>
	<path class="st12" d="M148.8,501.5c4.3,4.3,7.4,10.2,7.2,16.3c-0.3,7.5-5.4,13.8-8.9,20.5c-6.9,12.9-8,28.8-2.9,42.5
		c1.4,3.8,3.4,7.7,6.9,9.8c2.7,1.7,6.1,2.1,9.3,2.4c13.5,1.3,27.1,1.8,40.7,1.5c-7.8-5.5-14.8-12.3-19.4-20.6
		c-4.6-8.3-6.7-18.3-4.5-27.6c1.6-6.8,5.3-13.1,5.8-20c0.6-8.9-4.1-17.3-9.7-24.2c-2.6-3.3-5.3-6.9-9.2-8.5
		c-6.6-2.7-15.3-2.6-23.3-3c-4.2-0.2-4.7,1.3-1.5,3.9C142.5,496.8,145.9,498.6,148.8,501.5z"/>
	<path class="st13" d="M750.5,504.4c-17.2-1.8-36.2-4.7-67.3-7.5c-11.2-1-73-7.8-84.3-7.3c-13.9,0.7-52.9,1.1-66.5,3
		c-56.7,7.8-67.5,6.1-123.8,15c-17.9,2.8-147.5,59-165.3,62.1c-37.5,6.4-76.7,15.5-83.6,15.8C101,588,67.4,574.1,37.1,568.8
		c-30.5-5.4-37-16.5-40.1-22.5v901.1c250.6,17.3,502.9,32.7,753.5,19.7V504.4z"/>
	<path class="st14" d="M750.5,712c-15.8-31.9-69.8-120.6-151.5-172c-34.5-21.7-97.5-47.3-119.7-45.4c-7.4,0.6-42.6,3.5-47.7,9.5
		c6.4,1.4,83.6,29,123.7,75.4c54.7,63.5,61.4,130.6,63.3,130.8c24.6,2.8,101.4,12.5,131.9,13V712z"/>
	<path class="st15" d="M750.5,1606.6V710.5c-6.6-0.6-11.9-1.1-14.3-1.2c-16.1-1.1-24.3,3-39.2,3.3c-18.6,0.4-37.1-1.9-54.3-7.5
		c-35.8-11.5-85.8-27.3-174-23.1c-166.2,7.8-364.3,12.1-451.4,62.5c-6,3.5-13,6.9-20.3,10.5v851.6H750.5z"/>
	<path class="st16" d="M692.8,87.8c-5.8-2.1-10.4,4.9-14.3,9.2c-3.9,4.3-7,9.6-12.6,12.2c-3.5,1.6-8.1,2.4-9.5,5.7
		c-1.4,3.3,2.1,7,6,7.7s7.9-0.7,11.4-2.2c9.3-3.9,18-8.8,26-14.6c3-2.2,6-4.6,7.9-7.6c1.9-3.1,2.4-6.9,0.6-10
		c-3-5-12.4-5.2-15.7-0.4"/>
	<g id="雲_1_">
		<path class="st16" d="M433.8,0.2c-3.6,2.8-7.1,5.7-10.3,8.8c-2.5,2.4-5,4.9-8.2,6.4c-4.1,1.9-8.9,2-13.4,2.5
			c-13.8,1.6-26.8,7.7-36.2,16.8c-3.2,3.1-6,6.6-9.3,9.7C345.8,54,331,58.6,317.6,64.8C304.1,71,290.7,80.3,288,93.5
			c-0.3,1.6-0.4,3.5,0.6,4.8c0.9,1.1,2.5,1.7,4,2.1c8.1,2.5,17.3,4.9,24.8,1.2c6.9-3.5,9.8-11.3,16.3-15.4c8.7-5.6,21-3.1,31-6.6
			c8.4-2.9,14.3-9.8,22-14.1s16.9-5.9,25.7-8.3c25-6.8,46.9-20.3,68.3-33.7c11.6-7.2,23.2-14.5,34.7-21.7c0.8-0.5,1.7-1,2.5-1.6
			C517.9,0.2,433.8,0.2,433.8,0.2z"/>
		<path class="st16" d="M596.6,0.2c-5,3.6-9.7,7.6-15.1,10.8c-16.3,9.6-39.4,11.7-49.3,26.8c-3.8,5.8-5.3,13.1-11.4,17
			c-3.7,2.4-9.7,5.2-7.6,8.8c0.6,1.1,1.8,1.7,3,2.3c7.7,4,17.4,7.1,25.3,3.4c5.2-2.5,8.4-7.5,13.4-10.3c8.4-4.6,19.8-2,28.6-5.9
			c6.6-2.9,10.6-8.8,15.2-13.9c11.7-13,29-22,47.5-24.8c5.2-0.8,10.6-1.1,15.5-3c6.2-2.4,10.8-7.2,15.8-11.3L596.6,0.2L596.6,0.2z"
			/>
		<path class="st16" d="M748.3,20.2c-8.3,0.7-16.5,2.3-22.1,7.5c-4.5,4.2-6.6,10.3-11.7,13.8c-7.2,5-18,3.4-25.8,7.7
			c-3.6,1.9-6.3,4.9-8.9,7.8c-5,5.6-10,11.2-14.9,16.8c-0.9,1-1.9,2.2-1.5,3.5c0.3,1,1.3,1.7,2.3,2.2c8.4,4.5,19.9,3.9,27.5-1.5
			c3.7-2.6,6.5-6.1,10.5-8.3c7.2-3.9,16.4-2.3,24.8-2.8c7-0.4,13.5-2.2,19.9-4.7L748.3,20.2L748.3,20.2z"/>
		<path class="st16" d="M656.8,128c-10.5-0.9-22.9,2.8-31.6,8.1c-4.2,2.6-7.9,5.7-12.3,8c-4.2,2.1-28.6,4.4-32.7,6.7
			c-19.8,11.4-35.8,20.1-58.1,27.9c-3.5,1.2-4.7,11-4.1,14.3c25,2,46.1-15.2,69.2-24c13.5-5.1,28.2-7.5,41.6-12.9
			S654.7,140.8,656.8,128"/>
		<path class="st16" d="M276.5,104.1c-8.6,1.1-16.7,5.1-22.4,11c-0.7,0.8-1.4,1.6-1.7,2.5c-0.8,2.3,1,4.8,3.5,5.9
			c2.5,1.1,5.3,1,8,0.7c5.9-0.7,11.6-2.6,16.9-5.1c2.7-1.3,5.3-2.8,7.1-5c1.8-2.2,2.5-5.2,1.2-7.6c-2-3.6-7.9-3.6-12.2-2.4"/>
		<path class="st16" d="M459.7,76.6c-6.8,3.6-13.8,7.5-21.6,8.4c-3.9,0.5-7.8,0.2-11.7-0.1c-3.7-0.3-8.2-1-9.3-4.2
			c-1.1-3,1.8-6,4.6-8c10.8-7.7,23.8-12.5,36.5-17.1c3.9-1.4,7.8-2.8,12-2.9c5.2-0.1,11.3,1.7,14.9-1.6c1.9-1.7,2.5-4.2,4.3-5.9
			c8.4-7.4,25.8,4.5,11.4,13.1C488.6,65.8,472.6,69.8,459.7,76.6z"/>
	</g>
	<path class="st16" d="M748.3,157.9c-0.4,0-0.8-0.1-1.2-0.1c-8.2-1-14.8,0.1-20.8,5.7c-4.4,4.1-9.9,5.5-16.1,5.3
		c-13.4-0.3-26.4,2.5-36.5,11.3c-11.1,9.8-24.1,15.3-38.2,19.5c-8,2.4-15.7,5.8-23.1,9.5c-6.1,3-10.7,7.9-12.7,14.3
		c-0.6,1.7-0.1,4.9,1.2,5.9c9.8,7.7,23.6,7.2,32.5-1.6c6.2-6.1,13.2-8.5,21.7-7.8c9.7,0.7,18.6-1.2,26.6-6.8
		c6.4-4.5,13.8-6.6,21.6-7.7c7.9-1.2,15.8-2.5,23.6-4.4c7.4-1.9,14.5-4.4,21.5-7.2L748.3,157.9L748.3,157.9z"/>
	<path class="st16" d="M549.1,251.7c-1.9-0.3-3.2-0.1-4-0.7c-1.7-1.2-3.9-2.5-4.4-4.1c-0.4-1.3,1.1-3.7,2.4-4.8
		c7.4-5.9,16.2-7.9,25.5-7c2.1,0.2,5.3,2.3,5.6,3.9c0.4,2-1,5.4-2.8,6.7C564.7,250.6,556.5,251.4,549.1,251.7z"/>
</g>
<g id="圖層_5">
	<g>
		<path class="st17" d="M750.5,680c-11.4,0-36.5-0.3-46.7-0.1c-12.2,0.2-78.9-2-88.3-1.6s-71.4-1-81.9-1.5s-69.4,2.2-77.9,2.6
			c-10.9,0.5-77.5-1.8-86-1.6c-8.5,0.3-74.5-0.6-82-1c-7.6-0.4-76.1,1.3-81.9,0.9c-5.9-0.4-75,0.4-81.9-0.4
			c-6.9-0.8-75.3-0.8-81.9,0.2c-6.4,0.9-37.5-0.6-44.9-0.1v24c7.5,1,42.8,3.5,44.9,3.5c2.2,0,72.6-0.9,81.9-0.9
			c9.4,0,69.5,0.6,81.9,0.6s67.7,0.6,77.9,1.2s78.2-0.6,83.6-0.9c5.4-0.3,74.1,0.2,80.2,1.7s70.7-1.4,86-2s72.4,1.8,78.5,1.8
			s81.6,1.2,85.4,1.5c3,0.2,37.3-0.8,53-1.7L750.5,680L750.5,680z"/>
		<path class="st17" d="M21.8,751.7c0,0-5.4-84-4.4-91.6s15.6-27.7,21.1-27.7s27.2,16.3,27.2,20.1s2,95.5,0,99.2
			C63.6,755.4,25.5,754,21.8,751.7z"/>
		<path class="st17" d="M103.3,751.2c0,0-5.2-91.5,0-97.9s18.9-18.8,22.6-20.5c3.7-1.7,17,17.3,17.8,21.4c0.7,4.1,6.7,91.5,0,95.2
			C136.9,753,103.5,754.9,103.3,751.2z"/>
		<path class="st17" d="M205.8,632.6c4.5,1,22.9,19.9,23.2,23s4.8,96.5-2.4,96.5c-7.1,0-38.7,2.7-41.5-2.4
			c-2.7-5.1-5.8-90.4-3.4-94.5C184.2,651.2,198,630.9,205.8,632.6z"/>
		<path class="st17" d="M265,752.1c2.7,4.2,40.8,5.9,43.8,1.4c3.1-4.5,5.1-93.5,3.1-98.3s-18.9-24.5-23-24.5s-21.8,22.1-23.9,26.9
			C263,662.3,261.3,746.3,265,752.1z"/>
		<path class="st17" d="M372.3,628c3.7,0,21.1,24.5,21.8,28.2c0.7,3.7-1.4,92.2-4.8,97.9s-37.7,7.3-40.4,2.4s-5.1-95.3-2.4-100.3
			S366.5,628,372.3,628z"/>
		<path class="st17" d="M454.7,627.7c5.4,0,22,32.1,22,35.5s1.1,91.9-2.9,94.3c-4.1,2.4-40.1,4.8-44.5,0s-2.7-92.8,0-95.5
			C431.9,659.2,450.9,627.7,454.7,627.7z"/>
		<path class="st17" d="M615.5,626.4c4,0,19.7,18.9,23.3,26.8c3,6.7,4.6,105.3-2.7,107.4c-7.3,2.1-39.1,1.8-43.7-2.7
			c-4.6-4.6-2.7-96.6-0.1-104.9C593.4,649.7,610.6,626.5,615.5,626.4z"/>
		<path class="st17" d="M531.7,624c5.9,0,21.6,19.7,24.6,27.5s3.8,105.7,0,108s-41.1,1.6-44.3-2.8c-3.1-4.4-5.3-95.9-2.2-101.7
			C512.8,649.2,525.8,624,531.7,624z"/>
		<path class="st17" d="M698,628c3.4-0.1,24.3,29.6,24.3,33.6c0,4.1-1.3,91.5-4,96.2c-2.7,4.6-40.6,3.2-42.9,0
			c-2.2-3.2-4.8-85.2,0-96.2C680.1,650.7,690.8,628.2,698,628z"/>
	</g>
</g>
<g id="圖層_6">
	<g>
		<path class="st18" d="M10.1,763.2c0,0,0.4-11.2-4.2-14.8c6.2,0.1,13.8,0,15.6,7.5c3.7-7.6,6.6-14.5,14.1-17.8
			c-2.8,10-2.6,19.5,0,22.2c3.4-11.7,5-18.1,12.1-21.1c-0.3,11.7,0,18.7,4.9,22.6c1.3-15.1,7.1-23.6,7.1-23.6s1.2,10.7,2,18.1
			c6.5-13.3,12.5-12.7,16.1-9.1c-4.9,3-9.6,16.1-9.6,16.1"/>
		<path class="st18" d="M94.6,759.3c-2.9-5-4-12-10.2-12.1c7.8-3.7,17.3-2.1,19.3,6.6c2.9-12.4,1.3-18.3,9.5-22.3
			c-0.4,9.1-3,17.8,0,23.2c2.9-9.2,10.6-26.4,18.7-20.2c-3.4,4.4-9.8,14.1-7.9,18.9c5.8-7.8,4.5-12.5,12.1-11.5
			c-0.3,4.6-4.2,15.3-4.2,15.3c7.1-5.4,9.1-19.8,16.2-17.4c-3.2,4.5-5.4,9.2-3.4,14c5.9-9,9.6-11.3,13.7-6.5
			c-4.6,4.6-9.1,6.7-8.6,12"/>
		<path class="st18" d="M177.5,762.2c0,0-3.1-16.1-8.4-16.1c9.9-0.5,15.8,5.7,17.5,12.7c0.6-9.8,0.9-17.3-4.2-21.3
			c13.1,5.9,11,15.1,12.3,20.2c1.7-7.6,4.9-18.5,1.7-22.2c7.6,9.1,7.8,15.7,7.9,23.2c2.2-11.8,7.2-27.2,13.8-25.3
			c-1.5,3.2-4.5,13.4-5.4,22.4c5.4-11,9.3-17.5,14.5-16.7c-4.3,5.3-8,11-6.1,18.6c4.5-9.8,7.3-14,12.2-13.9
			c-1.7,4.2-5.9,9.7-3.9,14.3c2.4-6.8,10.3-7.4,10.3-7.4s-4.6,6.9-5.3,11.5"/>
		<path class="st18" d="M244.9,762.4c0,0,6.4-8.2-1.7-21.8c11.1,6.6,16.1,8.2,16.7,16.6c0-8.5-1.1-12.1,8.2-19.5
			c-1.1,7.3-0.8,14.5,2.8,22.5c4.1-6.6,3.6-10.6,2.8-17.2c5.9,6,7.9,5.1,7.1,12.5c5.9-6.2,6-17.1,15.4-13c-4.2,3-4.7,5.6-3.2,12.4
			c3.3-3.5,4.5-8.5,9.1-9c-0.9,2.7-1.1,5.6,0.6,8.4c4.4-2.5,5-5.7,5.3-11.8c4.9,3.8,6.3,8,4.6,16.6c0,0,6.4-15,17.8-9.1
			c-4.9,3.8-9.2,6-10.6,13.9"/>
		<path class="st18" d="M669,767.8c0,0,0.7-7.7-7.5-17.3c9.8,1.3,13.2,3.3,17,9.4c-0.3-10.3,1.1-22.7,6.1-26.5
			c-0.3,11.5,0.1,22.9,4,27.8c1.2-7.9,5.2-7.9,2.8-16.3c7.3,4.6,10.2,9.3,8.4,16.8c4.9-8.9,2.1-23.1,13.1-20.5
			c-1.3,5.7-4.1,12.3-4.2,19.4c4.6-5.3,10-6.6,10.2-16c1.8,6.9,5.2,6.1,0.9,15.7c7.2-7.7,7.4-8.9,15.6-8.4
			c-4.4,3.3-6.3,0.8-8.4,11.1"/>
		<path class="st18" d="M575.5,764.6c0,0,3.2-15.3-1.1-23c6.9,2.9,14.1,17,14.1,17s2.1-9.9-2.8-20.2c8.1,4.8,14,19.5,14,19.5
			s3.2-12.7-1.6-22.8c9,9.8,12.5,24.2,12.5,24.2s3-12.1,1.9-17.7c5.9,3.8,5.5,7,5.7,16.5c2.6-14.4,5.5-17.3,10-23
			c-0.4,5.3,1.6,15.3-0.8,22.6c4.8-7.7,5.3-14.4,9.8-15.3c-1.7,5.9-2.5,7.7-0.5,14c5.1-7.4,7.7-7.1,14-5.3
			c-3.2,2.2-8.3,5.8-8.3,13.5"/>
		<path class="st18" d="M414.9,767.6c0,0,0.8-10.8-2.9-18.7c7.4,5,11.6,3.2,14,14.8c-0.8-10.9-4.6-25.6-4.6-25.6s15.7,9.8,15.9,25.6
			c2.4-11.1,1.6-28,1.6-28s7.9,12,10,27.2c2.6-10.4,10-21.7,10-21.7s0,10,0,21.2c2.4-3.8,5.8-19.4,15.1-18.1
			c-3.4,4.8-4.5,10.9-4.2,19.3c1.6-5.6,13.2-14.8,13.2-14.8s-2.9,7.1-3.4,17.4"/>
		<path class="st18" d="M340,763.9c0,0-0.1-11.1-8.3-7.9c7.8-4.9,14.1-7.4,16.1,3.7c2.9-5.5,4.4-8.7,3-14.4c4.2,5,6.9,6.2,5.3,16.6
			c2.1-9.4,4-17.2,12.9-18.6c-4.2,6.6-7.5,14.6-3.2,17.5c3.2-5.4,4.7-3.9,4.9-10.2c2.4,5.2,2.8,6.8,3.8,9.3c1-9.2,2.8-16.6,10-16.6
			c-1.7,3.7-4.3,6.4-3.3,15.3c4.8-3.9,5.3-4.4,5.7-10.7c2.7,3.7,3.4,5.8,3.2,10.9c2.2-5.3,2.8-5.3,9.5-5.1c-3.2,3-4.4,2.6-6.5,10.3"
			/>
		<path class="st18" d="M496.3,766.7c0,0,6.2-14.8,0-22.2c6.6,2.9,9.5,4.5,10.3,13.9c1.6-9,7.3-7.5,5.4-16.5
			c4.5,7.5,3.2,8.8,4.9,18.2c0.9-7.5,3.6-23.4,11.7-23.1c-1.1,4.9-4.3,13.2-2.9,24.6c4.5-6.7,6.6-10.1,6-16.8
			c3.3,4.9,6.3,4.9,3.7,16.1c4.4-8.4,5.1-12.4,11.2-16.6c-0.9,8.3-2.8,7.9-2.4,17.3c4.4-6.5,4.9-7.1,7.4-10.8
			c1.7,5.1,0.7,7.4,0,12.1c3.6-6.4,7-6.2,12-5.2c-2.8,2.6-6.2,3-6.7,9.9"/>
	</g>
</g>
</svg>
